<svg xmlns="http://www.w3.org/2000/svg" viewBox="0 0 512 512">
  <path fill="#222" d="M256 468c-56.629 0-109.866-22.048-149.913-62.095C66.048 365.859 44 312.623 44 255.995c0-56.627 22.048-109.863 62.096-149.9C146.134 66.048 199.371 44 256 44c56.629 0 109.866 22.048 149.904 62.095C445.942 146.132 468 199.377 468 256.005c0 56.627-22.048 109.863-62.096 149.9C365.856 445.943 312.629 468 256 468Zm0-377.03c-91.002 0-165.029 74.035-165.029 165.025 0 90.991 74.036 165.025 165.029 165.025s165.029-74.034 165.029-165.025c0-90.99-74.027-165.025-165.029-165.025Z"/>
  <path fill="#222" d="m352 146.16-94.741.357c-26.36 0-50.222 28.662-50.222 37.577l-8.764 38.045s-1.353 5.054-2.471 6.332c-.77.883-4.115 2.273-4.115 2.273h-17.454c-3.824 0-7.751 3.1-8.775 6.924l-16.27 60.713c-1.024 3.824 1.24 6.924 5.073 6.924h16.515s2.705-.338 3.1 1.991c.404 2.443-.686 5.674-.686 5.674l-11.311 43.072c-1.39 5.186 1.691 9.394 6.877 9.394h104.558c5.185 0 10.521-4.208 11.912-9.394l11.808-44.058s1.278-3.607 2.311-4.988c1.334-1.776 7.008-1.691 7.008-1.691h20.104c3.824 0 7.75-3.1 8.774-6.924l16.271-60.713c1.024-3.824-1.24-6.924-5.073-6.924H321.61s-2.659.263-3.636-1.061c-1.588-2.161-.178-5.505-.178-5.505l8.52-31.78s1.597-8.164 8.342-9.14c2.058-.301 8.089-.264 8.089-.264 3.673 0 7.459-2.977 8.445-6.66l5.684-23.532c.986-3.673-1.193-6.66-4.876-6.66v.018Z"/>
</svg>
